<svg xmlns="http://www.w3.org/2000/svg" xmlns:xlink="http://www.w3.org/1999/xlink" viewBox="0 0 30 30"><defs><style>.cls-1{fill:url(#Dégradé_sans_nom_7);}.cls-2{fill:url(#Dégradé_sans_nom_6);}.cls-3{fill:url(#Dégradé_sans_nom_5);}.cls-4{fill:url(#Dégradé_sans_nom_4);}.cls-5{fill:#fff;}</style><linearGradient id="Dégradé_sans_nom_7" x1="1.32" y1="14.96" x2="14.32" y2="14.96" gradientTransform="matrix(1, 0, 0, -1, 0, 32)" gradientUnits="userSpaceOnUse"><stop offset="0.26" stop-color="#f97a12"/><stop offset="0.46" stop-color="#b07b58"/><stop offset="0.72" stop-color="#577bae"/><stop offset="0.91" stop-color="#1e7ce5"/><stop offset="1" stop-color="#087cfa"/></linearGradient><linearGradient id="Dégradé_sans_nom_6" x1="11.3" y1="21.04" x2="32.76" y2="9.16" gradientTransform="matrix(1, 0, 0, -1, 0, 32)" gradientUnits="userSpaceOnUse"><stop offset="0" stop-color="#f97a12"/><stop offset="0.07" stop-color="#cb7a3e"/><stop offset="0.15" stop-color="#9e7b6a"/><stop offset="0.24" stop-color="#757b91"/><stop offset="0.33" stop-color="#537bb1"/><stop offset="0.43" stop-color="#387ccc"/><stop offset="0.54" stop-color="#237ce0"/><stop offset="0.66" stop-color="#147cef"/><stop offset="0.79" stop-color="#0b7cf7"/><stop offset="1" stop-color="#087cfa"/></linearGradient><linearGradient id="Dégradé_sans_nom_5" x1="26.29" y1="13.84" x2="20.32" y2="31.69" gradientTransform="matrix(1, 0, 0, -1, 0, 32)" gradientUnits="userSpaceOnUse"><stop offset="0" stop-color="#fe315d"/><stop offset="0.08" stop-color="#cb417e"/><stop offset="0.16" stop-color="#9e4e9b"/><stop offset="0.25" stop-color="#755bb4"/><stop offset="0.34" stop-color="#5365ca"/><stop offset="0.44" stop-color="#386ddb"/><stop offset="0.54" stop-color="#2374e9"/><stop offset="0.66" stop-color="#1478f3"/><stop offset="0.79" stop-color="#0b7bf8"/><stop offset="1" stop-color="#087cfa"/></linearGradient><linearGradient id="Dégradé_sans_nom_4" x1="5.28" y1="24.4" x2="23.2" y2="-5.24" gradientTransform="matrix(1, 0, 0, -1, 0, 32)" gradientUnits="userSpaceOnUse"><stop offset="0" stop-color="#fe315d"/><stop offset="0.04" stop-color="#f63462"/><stop offset="0.1" stop-color="#df3a71"/><stop offset="0.17" stop-color="#c24383"/><stop offset="0.29" stop-color="#ad4a91"/><stop offset="0.55" stop-color="#755bb4"/><stop offset="0.92" stop-color="#1d76ed"/><stop offset="1" stop-color="#087cfa"/></linearGradient></defs><title>Intellij</title><g id="Calque_2" data-name="Calque 2"><polygon class="cls-1" points="8.08 22.84 1.32 17.48 4.68 11.24 14.32 15 8.08 22.84"/><polygon class="cls-2" points="29 8.48 28.48 24.68 17.72 29 11.24 24.84 20.72 15 16.56 5.92 20.28 1.44 29 8.48"/><polygon class="cls-3" points="29 8.48 20.48 18.56 16.56 5.92 20.28 1.44 29 8.48"/><polygon class="cls-4" points="14.48 24.24 3.24 28.32 5.04 22 7.4 14.24 1 12.08 5.04 1 13.84 2.08 22.48 11.96 14.48 24.24"/><rect x="6.48" y="6.4" width="17.28" height="17.28"/><rect class="cls-5" x="8.08" y="20.44" width="6.48" height="1.08"/><polygon class="cls-5" points="12.76 9.96 12.76 8.64 9.16 8.64 9.16 9.96 10.2 9.96 10.2 14.48 9.16 14.48 9.16 15.8 12.76 15.8 12.76 14.48 11.76 14.48 11.76 9.96 12.76 9.96"/><path class="cls-5" d="M16.2,15.92a2.9,2.9,0,0,1-1.4-.32,3.46,3.46,0,0,1-.92-.76l1-1.12a2.32,2.32,0,0,0,.6.52,1.35,1.35,0,0,0,.68.2,1,1,0,0,0,.72-.28,1.41,1.41,0,0,0,.24-.92V8.64h1.6v4.68a3.15,3.15,0,0,1-.16,1.12,2.13,2.13,0,0,1-.52.8,1.79,1.79,0,0,1-.8.48,2.83,2.83,0,0,1-1,.2"/></g></svg>